<svg width="22" height="24" viewBox="0 0 22 24" xmlns="http://www.w3.org/2000/svg"><title>icon-Shape</title><path d="M21.666 21.143l-5.424-5.633a9.152 9.152 0 0 0 2.159-5.907c0-5.067-4.128-9.19-9.2-9.19C4.126.414 0 4.537 0 9.604c0 5.066 4.127 9.188 9.2 9.188a9.11 9.11 0 0 0 5.271-1.662l5.465 5.676c.228.237.535.367.865.367a1.199 1.199 0 0 0 .865-2.03zM9.2 2.811c3.75 0 6.8 3.047 6.8 6.792 0 3.745-3.05 6.791-6.8 6.791s-6.8-3.046-6.8-6.791c0-3.745 3.05-6.792 6.8-6.792z" fill-rule="nonzero" fill="#A8AFB9"/></svg>