<?xml version="1.0" encoding="UTF-8"?>
<svg width="22px" height="24px" viewBox="0 0 22 24" version="1.1" xmlns="http://www.w3.org/2000/svg" xmlns:xlink="http://www.w3.org/1999/xlink">
    <!-- Generator: Sketch 43.1 (39012) - http://www.bohemiancoding.com/sketch -->
    <title>icon-Shape</title>
    <desc>Created with Sketch.</desc>
    <defs></defs>
    <g id="Page-1" stroke="none" stroke-width="1" fill="none" fill-rule="evenodd">
        <g id="1-0-0-0-Main-EBA-" transform="translate(-1360.000000, -12.000000)" fill-rule="nonzero" fill="#A8AFB9">
            <g id="top-menu-black">
                <g id="menu_second" transform="translate(573.000000, 11.379310)">
                    <path d="M808.665504,21.7639802 L803.242128,16.1304565 C804.636573,14.4748773 805.400598,12.3918199 805.400598,10.2232669 C805.400598,5.15665121 801.273264,1.03448276 796.200299,1.03448276 C791.127334,1.03448276 787,5.15665121 787,10.2232669 C787,15.2898825 791.127334,19.412051 796.200299,19.412051 C798.104761,19.412051 799.91962,18.8383512 801.471271,17.7492806 L806.935848,23.4255521 C807.164256,23.6624629 807.471466,23.7931034 807.800676,23.7931034 C808.112286,23.7931034 808.407896,23.6744483 808.632303,23.4587116 C809.109119,23.0004709 809.124319,22.2405984 808.665504,21.7639802 Z M796.200299,3.43155688 C799.950021,3.43155688 803.00052,6.47823808 803.00052,10.2232669 C803.00052,13.9682957 799.950021,17.0149769 796.200299,17.0149769 C792.450577,17.0149769 789.400078,13.9682957 789.400078,10.2232669 C789.400078,6.47823808 792.450577,3.43155688 796.200299,3.43155688 Z" id="Shape"></path>
                </g>
            </g>
        </g>
    </g>
</svg>